<svg width="48" height="48" viewBox="0 0 48 48" fill="none" xmlns="http://www.w3.org/2000/svg">
    <path d="M0 24C0 10.7452 10.7452 0 24 0V0C37.2548 0 48 10.7452 48 24V24C48 37.2548 37.2548 48 24 48V48C10.7452 48 0 37.2548 0 24V24Z"
          fill="#F0871E"/>
    <path fill-rule="evenodd" clip-rule="evenodd"
          d="M29.1519 8.09592C29.2048 7.54617 28.8021 7.05761 28.2523 7.00467C27.7026 6.95174 27.214 7.35448 27.1611 7.90422L26.7357 12.3219C26.6828 12.8716 27.0855 13.3602 27.6353 13.4131C28.185 13.4661 28.6736 13.0633 28.7265 12.5136L29.1519 8.09592ZM35.7266 16.5797L22.3857 23.8232C22.1195 23.9684 21.8135 24.0239 21.5132 23.9816C21.2129 23.9392 20.9343 23.8012 20.7186 23.588C20.5029 23.3748 20.3617 23.0978 20.3159 22.798C20.27 22.4983 20.322 22.1917 20.4641 21.9238L21.8176 19.3575C22.1646 18.6995 22.2785 17.9435 22.1407 17.2125C22.003 16.4815 21.6217 15.8188 21.059 15.3322C20.9249 15.2169 20.7681 15.131 20.5988 15.08C20.4294 15.029 20.2512 15.0141 20.0757 15.0362C19.9003 15.0584 19.7314 15.117 19.58 15.2085C19.4286 15.2999 19.298 15.4221 19.1967 15.5671L15.45 20.9323C15.4034 20.9797 15.3695 21.0341 15.3356 21.0962L14.7635 21.9153L11.5232 26.1278C10.8489 27.0775 10.3832 28.1593 10.157 29.3019C9.93085 30.4446 9.94919 31.6222 10.2109 32.7572L10.6146 34.506C11.1068 36.6378 12.4257 38.4869 14.2811 39.6463C16.1366 40.8057 18.621 41.3176 20.7529 40.8254L20.8559 40.7989C24.8726 40.2962 28.7668 39.0585 32.3425 37.1435C32.7824 36.9317 33.1288 36.5653 33.3157 36.1143C33.5026 35.6632 33.5168 35.1591 33.3556 34.6983C33.285 34.3825 33.1297 34.0919 32.9063 33.8578C32.683 33.6237 32.4 33.4549 32.0879 33.3695C32.047 33.3597 32.0094 33.339 31.9792 33.3097C31.949 33.2804 31.9272 33.2436 31.9161 33.203C31.905 33.1624 31.905 33.1196 31.916 33.0789C31.9271 33.0383 31.9489 33.0015 31.9791 32.9722C32.3011 32.6787 32.5254 32.2936 32.622 31.8688C32.7186 31.444 32.6828 30.9998 32.5193 30.596C32.3733 30.2526 32.1471 29.9492 31.8597 29.7113C31.5722 29.4734 31.232 29.3079 30.8674 29.2286C30.8261 29.219 30.7883 29.1984 30.7578 29.1691C30.7273 29.1397 30.7052 29.1027 30.694 29.0619C30.6828 29.0211 30.6828 28.978 30.6941 28.9372C30.7054 28.8963 30.7274 28.8593 30.758 28.83C31.0883 28.5371 31.32 28.1492 31.4213 27.7195C31.5226 27.2898 31.4887 26.8392 31.3241 26.4296C31.1634 26.0489 30.8947 25.7236 30.5513 25.4938C30.2078 25.264 29.8046 25.1398 29.3914 25.1365C29.3597 25.1366 29.3288 25.126 29.3039 25.1065C29.2789 25.0869 29.2613 25.0595 29.2538 25.0286C29.2464 24.9978 29.2495 24.9654 29.2628 24.9366C29.276 24.9077 29.2986 24.8842 29.3268 24.8698L37.6661 20.342C38.1423 20.0936 38.51 19.6779 38.6983 19.1749C38.8866 18.6719 38.8823 18.117 38.6862 17.6169C38.5714 17.3447 38.4009 17.0995 38.1856 16.8972C37.9704 16.6949 37.7151 16.5399 37.4363 16.4422C37.1575 16.3445 36.8614 16.3062 36.5669 16.3299C36.2724 16.3536 35.9862 16.4387 35.7266 16.5797ZM22.7009 9.38991C23.1725 9.10241 23.7878 9.25162 24.0753 9.72317L25.5193 12.0915C25.8068 12.5631 25.6575 13.1784 25.186 13.4659C24.7144 13.7534 24.0991 13.6042 23.8116 13.1326L22.3677 10.7643C22.0802 10.2927 22.2294 9.67741 22.7009 9.38991ZM33.1392 11.609C33.5114 11.2009 33.4824 10.5684 33.0743 10.1962C32.6663 9.82404 32.0338 9.8531 31.6616 10.2611L29.7923 12.3104C29.4201 12.7185 29.4492 13.351 29.8572 13.7232C30.2652 14.0954 30.8977 14.0663 31.2699 13.6583L33.1392 11.609Z"
          fill="white"/>
</svg>
