<svg width="48" height="48" viewBox="0 0 48 48" fill="none" xmlns="http://www.w3.org/2000/svg">
    <path d="M0 24C0 10.7452 10.7452 0 24 0V0C37.2548 0 48 10.7452 48 24V24C48 37.2548 37.2548 48 24 48V48C10.7452 48 0 37.2548 0 24V24Z"
          fill="#676767"/>
    <path fill-rule="evenodd" clip-rule="evenodd"
          d="M13.7716 9.18649C16.6763 7.17709 20.2007 6 24 6C33.9411 6 42 14.0589 42 24C42 33.5213 34.6074 41.316 25.2489 41.9574C25.2154 42.9345 24.9036 43.8896 24.3395 44.7062C23.5612 45.833 22.3665 46.6041 21.0192 46.8526L16.8539 47.6207L16.8516 47.6212C14.9529 47.969 12.9912 47.5537 11.3969 46.4633C9.80219 45.3728 8.70527 43.6957 8.34962 41.799L8.34918 41.7967L6.41918 31.435C6.26556 30.6103 6.36987 29.7659 6.70708 29.0123C6.24672 27.4212 6 25.7394 6 24C6 19.0174 8.02449 14.5076 11.2958 11.2484C11.4828 12.0387 12.2713 12.5372 13.0726 12.3649C14.4647 12.0657 16.1246 11.7212 18.0032 12.8682C18.7102 13.2999 19.6358 13.0782 20.0707 12.373C20.5055 11.6678 20.2848 10.7462 19.5778 10.3145C17.3635 8.96251 15.2822 8.96823 13.7716 9.18649ZM25.5603 30.1584L23.9845 30.449C23.9581 30.4384 23.9319 30.427 23.9059 30.4149C19.8765 28.5285 17.6117 28.4972 16.2739 28.4787L16.1253 28.4766C15.2969 28.4634 14.6367 27.7813 14.6505 26.9531C14.6644 26.1248 15.3472 25.464 16.1756 25.4772L16.2778 25.4788C17.8538 25.5028 20.5797 25.5443 25.18 27.6979C25.9301 28.0491 26.2529 28.9419 25.9011 29.6922C25.816 29.8737 25.6991 30.0303 25.5603 30.1584ZM8.89203 33.7891L10.316 41.4339C10.5735 42.8072 11.3679 44.0227 12.5249 44.8139C13.6818 45.6052 15.107 45.9075 16.4877 45.6545L20.653 44.8864C21.4815 44.7336 22.2151 44.2595 22.6924 43.5685C23.0191 43.0956 23.2074 42.5476 23.2444 41.9844C23.2615 41.7248 23.2465 41.462 23.198 41.2018C23.198 41.2018 23.198 41.2018 23.198 41.2018L22.7922 39.0233L22.426 37.0571L24.3928 36.6944L27.6327 36.0969C27.6672 36.0905 27.7015 36.0833 27.7355 36.0753C28.2455 35.955 28.694 35.6502 28.9923 35.2184C29.0321 35.1608 29.0687 35.1015 29.1023 35.0408C29.3373 34.6161 29.4189 34.1214 29.3293 33.6405C29.227 33.0909 28.9094 32.6043 28.4464 32.2876C27.9834 31.971 27.413 31.8504 26.8607 31.9523L15.2902 34.0861L13.3233 34.4488L12.9571 32.4826L12.5513 30.3042C12.449 29.7545 12.1314 29.2679 11.6684 28.9513C11.2054 28.6347 10.635 28.5141 10.0827 28.6159C9.53031 28.7178 9.04124 29.0338 8.72306 29.4945C8.40487 29.9551 8.28363 30.5227 8.386 31.0723L8.89203 33.7891ZM27 20C27 22.2096 28.344 24 30 24C31.6572 24 33 22.2096 33 20C33 17.792 31.6572 16 30 16C28.344 16 27 17.792 27 20ZM15 22C13.344 22 12 20.2096 12 18C12 15.792 13.344 14 15 14C16.6572 14 18 15.792 18 18C18 20.2096 16.6572 22 15 22ZM28.6573 14.9058C30.5154 13.7264 32.181 14.042 33.5781 14.317C34.3928 14.4774 35.1824 13.9499 35.3418 13.1388C35.5012 12.3278 34.9701 11.5403 34.1554 11.3799L34.0859 11.3662C32.6275 11.0785 29.9279 10.5459 27.0383 12.38C26.3389 12.824 26.1343 13.7493 26.5814 14.4467C27.0285 15.1442 27.9579 15.3497 28.6573 14.9058Z"
          fill="white"/>
</svg>
