<svg width="48" height="48" viewBox="0 0 48 48" fill="none" xmlns="http://www.w3.org/2000/svg">
    <path d="M0 24C0 10.7452 10.7452 0 24 0C37.2548 0 48 10.7452 48 24C48 37.2548 37.2548 48 24 48C10.7452 48 0 37.2548 0 24Z"
          fill="#F0B91E"/>
    <path fill-rule="evenodd" clip-rule="evenodd"
          d="M34.9372 34.413C34.293 35.0533 33.2529 35.0494 32.6139 34.4066C31.1456 32.9306 28.4597 31.1704 23.9996 31.1704C19.5395 31.1704 16.8536 32.9306 15.3853 34.4066C14.7463 35.0494 13.7049 35.0533 13.062 34.413C12.4179 33.7727 12.4153 32.7326 13.0556 32.0897C14.6165 30.5186 18.1149 27.8842 23.9996 27.8842C29.8843 27.8842 33.3827 30.5186 34.9436 32.0897C35.5839 32.7326 35.58 33.7727 34.9372 34.413ZM18.3246 17.7283C20.0989 17.7283 21.5389 19.167 21.5389 20.9426C21.5389 22.7181 20.0989 24.1569 18.3246 24.1569C16.5491 24.1569 15.1104 22.7181 15.1104 20.9426C15.1104 19.167 16.5491 17.7283 18.3246 17.7283ZM29.8959 17.7283C31.6702 17.7283 33.1102 19.167 33.1102 20.9426C33.1102 22.7181 31.6702 24.1569 29.8959 24.1569C28.1204 24.1569 26.6816 22.7181 26.6816 20.9426C26.6816 19.167 28.1204 17.7283 29.8959 17.7283ZM24 6C14.0589 6 6 14.0589 6 24C6 33.9411 14.0589 42 24 42C33.9411 42 42 33.9411 42 24C42 14.0589 33.9411 6 24 6Z"
          fill="white"/>
</svg>
