<svg width="48" height="48" viewBox="0 0 48 48" fill="none" xmlns="http://www.w3.org/2000/svg">
    <path d="M0 24C0 10.7452 10.7452 0 24 0C37.2548 0 48 10.7452 48 24C48 37.2548 37.2548 48 24 48C10.7452 48 0 37.2548 0 24Z"
          fill="#A5417D"/>
    <path fill-rule="evenodd" clip-rule="evenodd"
          d="M24.0511 36.6579C15.3854 36.6579 12.0361 32.0872 12.0361 29.7665C12.0361 29.1313 12.5504 28.617 13.1856 28.617H34.9167C35.5518 28.617 36.0661 29.1313 36.0661 29.7665C36.0661 32.0872 32.7169 36.6579 24.0511 36.6579ZM15.4088 17.4261C14.8547 17.106 14.6644 16.3963 14.9846 15.8421C15.3047 15.288 16.0144 15.0977 16.5686 15.4179L21.1881 18.0844C21.5147 18.2734 21.696 18.5987 21.7397 18.9459C21.75 19.005 21.7513 19.0603 21.7526 19.1194C21.7513 19.1773 21.75 19.2339 21.7397 19.2917C21.696 19.6389 21.5147 19.9654 21.1881 20.1531L16.5686 22.821C16.0144 23.1411 15.3047 22.9509 14.9846 22.3967C14.6644 21.8413 14.8547 21.1329 15.4088 20.8127L18.3416 19.1194L15.4088 17.4261ZM25.8788 18.9459C25.9225 18.5987 26.1038 18.2734 26.4303 18.0844L31.0499 15.4179C31.6053 15.0977 32.3138 15.288 32.6339 15.8421C32.954 16.3963 32.765 17.106 32.2096 17.4261L29.2769 19.1194L32.2096 20.8127C32.765 21.1329 32.954 21.8413 32.6339 22.3967C32.3138 22.9509 31.6053 23.1411 31.0499 22.821L26.4303 20.1531C26.1038 19.9654 25.9225 19.6389 25.8788 19.2917C25.8685 19.2339 25.8685 19.1773 25.8672 19.1194C25.8685 19.0603 25.8685 19.005 25.8788 18.9459ZM24 6C14.0589 6 6 14.0589 6 24C6 33.9411 14.0589 42 24 42C33.9399 42 42 33.9411 42 24C42 14.0589 33.9399 6 24 6Z"
          fill="white"/>
</svg>
