<svg width="48" height="48" viewBox="0 0 48 48" fill="none" xmlns="http://www.w3.org/2000/svg">
    <path d="M0 24C0 10.7452 10.7452 0 24 0C37.2548 0 48 10.7452 48 24C48 37.2548 37.2548 48 24 48C10.7452 48 0 37.2548 0 24Z"
          fill="#33AB6F"/>
    <path fill-rule="evenodd" clip-rule="evenodd"
          d="M24 6C14.0589 6 6 14.0589 6 24C6 33.9411 14.0589 42 24 42C33.9411 42 42 33.9411 42 24C42 14.0589 33.9411 6 24 6ZM34.9443 31.9714C33.3821 33.5413 29.8837 36.177 24.0003 36.177C18.1155 36.177 14.6171 33.5413 13.055 31.9714C12.416 31.3273 12.4185 30.2872 13.0627 29.6482C13.7055 29.0079 14.7457 29.0104 15.386 29.6546C16.8543 31.1306 19.5401 32.8907 24.0003 32.8907C28.4604 32.8907 31.1463 31.1306 32.6145 29.6546C33.2535 29.0104 34.2937 29.0079 34.9378 29.6482C35.5807 30.2872 35.5845 31.3273 34.9443 31.9714ZM18.3234 17.7283C20.0989 17.7283 21.5389 19.167 21.5389 20.9426C21.5389 22.7181 20.0989 24.1569 18.3234 24.1569C16.5491 24.1569 15.1104 22.7181 15.1104 20.9426C15.1104 19.167 16.5491 17.7283 18.3234 17.7283ZM29.8946 17.7283C31.6702 17.7283 33.1102 19.167 33.1102 20.9426C33.1102 22.7181 31.6702 24.1569 29.8946 24.1569C28.1204 24.1569 26.6816 22.7181 26.6816 20.9426C26.6816 19.167 28.1204 17.7283 29.8946 17.7283Z"
          fill="white"/>
</svg>
