<svg width="48" height="48" viewBox="0 0 48 48" fill="none" xmlns="http://www.w3.org/2000/svg">
    <path d="M0 24C0 10.7452 10.7452 0 24 0V0C37.2548 0 48 10.7452 48 24V24C48 37.2548 37.2548 48 24 48V48C10.7452 48 0 37.2548 0 24V24Z"
          fill="#0A78BF"/>
    <path d="M20.2587 22.0314C23.738 19.4653 19.2157 13.5622 18 13L30 13.1003C28.2055 14.0396 24.4339 19.602 27.2173 22.0314C30.3868 24.7978 16.8973 24.5107 20.2587 22.0314Z"
          fill="url(#paint0_linear)"/>
    <path d="M28.2385 8.13852C27.0623 6.25683 22.0443 4.52932 18.908 7.97909C13.3747 7.17143 9.79948 11.0887 11.3729 12.5201C10.925 14.1802 13.0409 14.0994 15.7349 13.7204C20.2247 15.6289 21.5564 14.7988 22.4778 14.1716C23.2285 14.3517 26.4442 15.8229 27.9138 14.3547C29.6173 15.41 32.1034 14.9106 33.0726 14.5461C35.1703 14.9972 35.5669 14.1716 36.3602 13.3459C38.3827 11.2409 35.1374 9.10597 33.1772 10.0469C32.7851 8.47887 30.5907 7.19779 28.2385 8.13852Z"
          fill="#E7F2F9"/>
    <path fill-rule="evenodd" clip-rule="evenodd"
          d="M6 22.5L6.0008 22.5008C5.9995 22.7695 6.00004 23.0617 6.00064 23.3823C6.00101 23.5773 6.00139 23.7828 6.00139 24C6.00139 33.9411 14.0599 42 24.0007 42C33.9415 42 42 33.9411 42 24C42 23.833 41.9977 23.6665 41.9932 23.5006L42.0001 23.5V20.5L40.5 19L39.5 20.5L37.5 19.5L35.7329 21.7089L35.2977 21.7977L33 19.5L27 22.5L22.5 20.5L19 21.5L16.5 19.5L13 21L10.5 19.5L8.18068 20.8916L7.8652 20.8315L6 18.5V22.5ZM29 26.5C29 28.4334 30.344 30 32 30C33.6572 30 35 28.4334 35 26.5C35 24.568 33.6572 23 32 23C30.344 23 29 24.568 29 26.5ZM16 30C14.344 30 13 28.4334 13 26.5C13 24.568 14.344 23 16 23C17.6572 23 19 24.568 19 26.5C19 28.4334 17.6572 30 16 30ZM23.6182 38C26.1159 38 28.1406 36.433 28.1406 34.5C28.1406 32.567 26.1159 31 23.6182 31C21.1205 31 19.0957 32.567 19.0957 34.5C19.0957 36.433 21.1205 38 23.6182 38Z"
          fill="white"/>
    <defs>
        <linearGradient id="paint0_linear" x1="24" y1="2.5" x2="24" y2="24" gradientUnits="userSpaceOnUse">
            <stop stop-color="#086099"/>
            <stop offset="1" stop-color="#E7F2F9"/>
        </linearGradient>
    </defs>
</svg>
